<?xml version="1.0" standalone="no"?>
<!DOCTYPE svg PUBLIC "-//W3C//DTD SVG 20010904//EN"
 "http://www.w3.org/TR/2001/REC-SVG-20010904/DTD/svg10.dtd">
<svg version="1.0" xmlns="http://www.w3.org/2000/svg"
 width="180.000000pt" height="180.000000pt" viewBox="0 0 180.000000 180.000000"
 preserveAspectRatio="xMidYMid meet">
<metadata>
Created by potrace 1.11, written by Peter Selinger 2001-2013
</metadata>
<g transform="translate(0.000000,180.000000) scale(0.100000,-0.100000)"
fill="#000000" stroke="none">
<path d="M167 1204 c-59 -48 -74 -71 -58 -87 7 -7 26 0 58 23 81 56 94 70 82
91 -5 11 -14 19 -18 19 -5 0 -34 -20 -64 -46z"/>
<path d="M1477 1243 c-26 -25 17 -74 104 -118 51 -26 79 -24 79 5 0 19 -38 51
-111 93 -47 28 -61 32 -72 20z"/>
<path d="M970 955 c-11 -13 -8 -26 19 -77 35 -69 41 -139 15 -176 -36 -52
-104 -1 -104 79 0 54 -25 85 -59 74 -19 -6 -21 -14 -21 -79 0 -76 -15 -106
-53 -106 -52 0 -75 135 -37 210 27 53 26 70 -5 70 -91 0 -122 -128 -60 -249
27 -55 42 -69 84 -81 31 -9 91 4 91 19 0 4 6 16 14 27 14 18 16 18 43 -13 37
-43 94 -53 140 -24 70 44 86 106 54 210 -32 106 -86 158 -121 116z"/>
<path d="M1251 944 c-44 -36 -44 -93 -1 -136 26 -25 36 -29 62 -24 65 13 94
75 64 134 -30 57 -77 67 -125 26z"/>
<path d="M372 930 c-43 -41 -39 -107 10 -143 53 -40 120 4 120 79 0 72 -79
111 -130 64z"/>
</g>
</svg>
